@startuml
 class Person{
  + publicFiled
  - privateFiled
  # protectedFiled
  ~ packageFiled
  + publicMethod()
 }
left to right direction
together {
 class Class01
 class Class02
 class Class03
 class Class04
 class Class05
 class Class06
 class Class07
 class Class08
 class Class09
 class Class10
}
Class01 <|-- Class02
Class03 *-- Class04
Class05 o-- Class06
Class07 .. Class08
Class09 -- Class10

Class11 <|.. Class12
Class13 --> Class14
Class15 ..> Class16
Class17 ..|> Class18
Class19 <--* Class20

Class21 #-- Class22
Class23 x-- Class24
Class25 }-- Class26
Class27 +-- Class28
Class29 ^-- Class30

@enduml